HIERARCHY
ROOT root     
{
	OFFSET 0.0000 0.0000 0.0000
	CHANNELS 6 Xposition Yposition Zposition Zrotation Yrotation Xrotation
	JOINT pelvis   
	{
		OFFSET 0.0000 0.0000 0.0000
		CHANNELS 3 Zrotation Yrotation Xrotation
		JOINT thorax   
		{
			OFFSET 0.0000 23.0750 -5.0000
			CHANNELS 3 Zrotation Yrotation Xrotation
			JOINT rclavicle
			{
				OFFSET 0.0000 28.0009 0.0000
				CHANNELS 3 Zrotation Yrotation Xrotation
				JOINT rhumerus 
				{
					OFFSET -18.5725 5.5939 0.0000
					CHANNELS 3 Zrotation Yrotation Xrotation
					JOINT rradius  
					{
						OFFSET -24.8459 0.0000 0.0000
						CHANNELS 3 Zrotation Yrotation Xrotation
						JOINT rhand    
						{
							OFFSET -24.5477 0.0000 0.0000
							CHANNELS 3 Zrotation Yrotation Xrotation
							End Site
							{
								OFFSET -8.1826 0.0000 0.0000
							}
						}
					}
				}
			}
			JOINT lclavicle
			{
				OFFSET 0.0000 28.0009 0.0000
				CHANNELS 3 Zrotation Yrotation Xrotation
				JOINT lhumerus 
				{
					OFFSET 18.5725 5.5939 0.0000
					CHANNELS 3 Zrotation Yrotation Xrotation
					JOINT lradius  
					{
						OFFSET 24.8459 0.0000 0.0000
						CHANNELS 3 Zrotation Yrotation Xrotation
						JOINT lhand    
						{
							OFFSET 24.5477 0.0000 0.0000
							CHANNELS 3 Zrotation Yrotation Xrotation
							End Site
							{
								OFFSET 8.1826 0.0000 0.0000
							}
						}
					}
				}
			}
			JOINT head     
			{
				OFFSET 0.0000 35.2030 0.0000
				CHANNELS 3 Zrotation Yrotation Xrotation
				End Site
				{
					OFFSET 0.0000 11.7343 0.0000
				}
			}
		}
		JOINT rfemur   
		{
			OFFSET -8.2817 0.0000 0.0000
			CHANNELS 3 Zrotation Yrotation Xrotation
			JOINT rtibia   
			{
				OFFSET 0.0000 -43.3627 0.0000
				CHANNELS 3 Zrotation Yrotation Xrotation
				JOINT rfoot    
				{
					OFFSET 0.0000 -38.2947 0.0000
					CHANNELS 3 Zrotation Yrotation Xrotation
					JOINT rtoes    
					{
						OFFSET 0.0000 0.0000 16.6054
						CHANNELS 3 Zrotation Yrotation Xrotation
						End Site
						{
							OFFSET 0.0000 0.0000 5.5351
						}
					}
				}
			}
		}
		JOINT lfemur   
		{
			OFFSET 8.2817 0.0000 0.0000
			CHANNELS 3 Zrotation Yrotation Xrotation
			JOINT ltibia   
			{
				OFFSET 0.0000 -43.3627 0.0000
				CHANNELS 3 Zrotation Yrotation Xrotation
				JOINT lfoot    
				{
					OFFSET 0.0000 -38.2947 0.0000
					CHANNELS 3 Zrotation Yrotation Xrotation
					JOINT ltoes    
					{
						OFFSET 0.0000 0.0000 16.6054
						CHANNELS 3 Zrotation Yrotation Xrotation
						End Site
						{
							OFFSET 0.0000 0.0000 5.5351
						}
					}
				}
			}
		}
	}
}
MOTION
Frames: 20
Frame Time: .0333333
16.112 81.454 7.6584 -86.696 -77.5399 112.841 0 -0 0 1.88947 -6.25366 25.2038 19.7849 -12.368 5.3941e-05 47.9835 -6.89743 24.1744 -180 62.8648 -180 -6.88271 6.57115 -0.395599 -15.8121 9.06393 5.69662e-05 -50.5623 16.7699 8.2161 -180 -67.8985 180 6.39382 -0.0273003 -0.00150002 2.64263 13.4436 -14.5657 5.31602 -4.82873 -103.536 -0 -0 1.04899 6.07164e-06 -6.19685 20.0765 -2.1346 -6.23607e-05 -71.1035 -1.32998 13.631 -56.984 -0 -0 49.6245 4.62446e-06 11.292 -8.89989 -1.76942 -7.56167e-06 -29.7774 
16.152 81.137 7.66 -87.3354 -77.6175 113.523 0 -0 0 1.68455 -5.97121 25.3199 19.8793 -12.227 1.63412e-05 48.3942 -6.92728 24.123 -180 63.1437 -180 -7.15838 6.47073 -0.405204 -15.8546 8.91317 4.22384e-05 -50.6022 16.5808 8.24411 180 -68.0776 -180 6.5148 -0.0101999 -0.000600011 2.65346 13.1799 -15.2991 4.63133 -5.05124 -103.085 -0 -0 0.81371 -1.6632e-05 -6.19784 20.0358 -2.13068 3.00058e-05 -71.8804 -1.42204 13.5663 -57.5022 -0 -0 50.564 7.89295e-08 11.4882 -9.38117 -1.89741 1.35067e-05 -29.7022 
16.189 80.839 7.6548 -88.0837 -77.6673 114.315 0 -0 0 1.51096 -5.65876 25.3793 19.9632 -12.0753 0.000186546 48.8081 -6.91781 24.1133 -180 63.495 -180 -7.48592 6.35001 -0.415803 -15.9215 8.76151 2.46741e-05 -50.6724 16.3675 8.25015 180 -68.3147 -180 6.69341 0.0234999 0.00140003 2.63154 12.8791 -16.0562 3.99578 -5.1968 -102.602 -0 -0 1.0495 -3.75756e-05 -5.91404 20.4341 -2.07115 -1.08278e-05 -73.3221 -1.47164 13.5148 -57.9937 -0 -0 51.4547 -5.05211e-05 11.707 -9.83567 -2.02716 6.08584e-06 -29.6362 
16.216 80.562 7.6438 -88.8498 -77.6771 115.111 0 -0 0 1.37483 -5.34425 25.3976 20.0365 -11.9152 2.50489e-05 49.2144 -6.86365 24.1502 -180 63.9157 -180 -7.85283 6.21847 -0.4272 -16.013 8.6154 -8.71465e-06 -50.7831 16.1352 8.23524 180 -68.5979 180 6.93733 0.0755996 0.00459991 2.57872 12.5534 -16.8052 3.46395 -5.27849 -102.047 -0 -0 1.63183 -3.33291e-06 -5.27996 21.24 -1.91756 2.18434e-05 -75.0906 -1.47282 13.4659 -58.4275 -0 -0 52.2822 -2.68149e-05 11.9387 -10.2615 -2.15695 9.39238e-06 -29.5664 
16.226 80.313 7.629 -89.5239 -77.6707 115.791 0 -0 0 1.27377 -5.05268 25.3866 20.1012 -11.7491 7.46281e-06 49.6062 -6.76363 24.2342 -180 64.4043 -180 -8.24082 6.08688 -0.438897 -16.1253 8.48093 1.88807e-05 -50.9386 15.8899 8.20423 -180 -68.9289 180 7.2493 0.145504 0.00920027 2.50263 12.2173 -17.5195 3.07085 -5.31627 -101.377 -0 -0 2.42228 8.39552e-06 -4.26967 22.38 -1.62826 1.07235e-05 -76.7659 -1.42618 13.4038 -58.7849 -0 -0 53.0295 2.59031e-05 12.1751 -10.6587 -2.28513 6.32374e-06 -29.4853 
16.215 80.093 7.6126 -90.037 -77.6481 116.281 0 -0 0 1.20175 -4.80417 25.3518 20.161 -11.5827 2.04421e-05 49.9763 -6.62021 24.3631 -180 64.9511 -180 -8.62833 5.96516 -0.450407 -16.2539 8.36381 8.43084e-06 -51.1433 15.639 8.16271 180 -69.3029 -180 7.62543 0.230996 0.0154001 2.41496 11.8876 -18.1674 2.81701 -5.33545 -100.551 -0 -0 3.27755 9.5406e-06 -2.93159 23.7403 -1.18111 -3.48656e-06 -77.9716 -1.33702 13.3158 -59.0476 -0 -0 53.6883 -1.91233e-05 12.4092 -11.0248 -2.40951 -1.13715e-05 -29.3843 
16.182 79.907 7.5958 -90.342 -77.6285 116.539 0 -0 0 1.14781 -4.61125 25.2904 20.219 -11.4226 -1.59857e-05 50.3186 -6.44129 24.5356 -180 65.5484 -180 -8.99088 5.86228 -0.461295 -16.39 8.26852 -4.59597e-05 -51.3922 15.3919 8.11933 180 -69.7034 180 8.05464 0.327504 0.0231 2.33118 11.5781 -18.7238 2.68342 -5.35791 -99.5385 -0 -0 4.07559 -1.17929e-05 -1.37743 25.1816 -0.586193 -1.62949e-07 -78.4824 -1.2168 13.1926 -59.2145 -0 -0 54.2458 -2.80344e-05 12.6329 -11.3552 -2.52682 -1.6641e-05 -29.2607 
16.127 79.756 7.5803 -90.432 -77.6249 116.562 0 -0 0 1.09292 -4.47635 25.1949 20.2835 -11.2757 -5.82608e-05 50.6335 -6.24029 24.7483 -180 66.1836 -180 -9.30596 5.78457 -0.471203 -16.5226 8.19818 -6.41512e-06 -51.6821 15.1599 8.08425 180 -70.1223 180 8.5199 0.428798 0.0318999 2.27023 11.3017 -19.1687 2.65232 -5.39567 -98.3372 -0 -0 4.74697 1.14734e-06 0.242104 26.5493 0.108201 -3.30746e-07 -78.3045 -1.08645 13.0344 -59.2886 -0 -0 54.6917 7.20469e-05 12.8378 -11.645 -2.63366 1.70896e-05 -29.1202 
16.054 79.64 7.5659 -90.29 -77.6402 116.349 0 -0 0 1.03957 -4.40198 25.0538 20.3492 -11.1557 -9.56139e-05 50.9207 -6.02318 24.9964 -180 66.841 -180 -9.55447 5.73646 -0.479795 -16.6486 8.15703 2.05825e-06 -52.0039 14.9444 8.06529 -180 -70.546 180 8.9977 0.527097 0.0414992 2.23849 11.0657 -19.4994 2.69798 -5.45986 -96.947 -0 -0 5.24695 4.40828e-06 1.74281 27.736 0.811298 -6.8826e-06 -77.596 -0.947571 12.8318 -59.2898 -0 -0 55.0249 -2.52487e-05 13.025 -11.8858 -2.72777 7.47687e-06 -28.9609 
15.967 79.561 7.5539 -89.9549 -77.6856 115.95 0 -0 0 0.959238 -4.37691 24.8571 20.4247 -11.0661 -2.16713e-06 51.1808 -5.81135 25.271 -180 67.5066 -180 -9.72077 5.71766 -0.486603 -16.7566 8.14351 -1.17079e-05 -52.34 14.7599 8.07138 180 -70.9607 180 9.46127 0.615704 0.0510001 2.25585 10.8768 -19.7132 2.8245 -5.54523 -95.4174 -0 -0 5.62189 -1.22342e-05 2.9759 28.6371 1.42722 -6.29337e-07 -76.6932 -0.831909 12.5986 -59.2291 -0 -0 55.238 -7.62323e-05 13.1814 -12.0746 -2.80471 -2.956e-06 -28.8054 
15.87 79.516 7.5436 -89.4395 -77.7751 115.392 0 -0 0 0.848404 -4.39339 24.5947 20.5093 -11.0152 8.41445e-05 51.4184 -5.61827 25.5688 -180 68.1565 -180 -9.79662 5.72671 -0.49121 -16.846 8.15876 -4.49863e-05 -52.6773 14.6101 8.10849 -180 -71.3476 180 9.88119 0.687806 0.0594994 2.32715 10.7354 -19.8219 3.02655 -5.65164 -93.7914 -0 -0 5.92958 4.44724e-06 3.80837 29.2164 1.86095 -2.30387e-05 -75.858 -0.747709 12.3388 -59.1269 -0 -0 55.3346 -3.46191e-06 13.3061 -12.2036 -2.86194 -3.50925e-06 -28.6651 
15.768 79.506 7.5337 -88.7685 -77.8963 114.707 0 -0 0 0.705344 -4.44071 24.2657 20.6001 -11.0087 -3.57804e-06 51.6352 -5.45507 25.8802 -180 68.7746 -180 -9.78081 5.75903 -0.493204 -16.9142 8.20054 3.82286e-05 -52.9992 14.4997 8.1835 -180 -71.6924 180 10.2301 0.738405 0.0660993 2.45248 10.6377 -19.8486 3.29931 -5.77597 -92.1185 -0 -0 6.24538 1.56085e-05 4.14685 29.4717 2.04287 1.52201e-05 -75.3339 -0.70265 12.062 -59 -0 -0 55.3195 -2.019e-06 13.3939 -12.2708 -2.89725 1.28552e-05 -28.5525 
15.664 79.526 7.5232 -87.9696 -78.0545 113.93 0 -0 0 0.525774 -4.50698 23.873 20.6966 -11.0481 -1.86338e-06 51.8341 -5.33492 26.2005 -180 69.3477 -180 -9.67937 5.80792 -0.492206 -16.9624 8.26402 6.19854e-06 -53.2867 14.4331 8.29403 180 -71.9882 180 10.4831 0.764105 0.0700994 2.62937 10.5756 -19.818 3.64584 -5.91648 -90.4509 -0 -0 6.66813 -2.32493e-06 3.95973 29.421 1.94754 -1.2078e-05 -75.2066 -0.704512 11.7783 -58.8587 -0 -0 55.1982 2.11936e-05 13.4427 -12.2774 -2.90957 1.57238e-05 -28.4816 
15.558 79.576 7.5089 -87.0175 -78.2327 113.031 0 -0 0 0.333753 -4.59135 23.431 20.7865 -11.1343 -2.76329e-05 52.0187 -5.25762 26.524 -180 69.8565 -180 -9.50417 5.86738 -0.488195 -17.0003 8.35544 -1.89342e-05 -53.5257 14.396 8.44846 180 -72.2261 180 10.623 0.764096 0.0710016 2.84028 10.5406 -19.7661 4.06345 -6.07426 -88.814 -0 -0 7.25486 -2.40292e-05 3.24351 29.1063 1.57908 -3.46089e-06 -75.4111 -0.735572 11.4915 -58.7098 -0 -0 54.9825 -8.15389e-05 13.4548 -12.223 -2.89943 8.17611e-06 -28.4619 
15.452 79.65 7.4915 -85.9386 -78.441 112.037 0 -0 0 0.117686 -4.68187 22.9518 20.8717 -11.2637 1.35047e-05 52.1873 -5.23441 26.8463 -180 70.2883 -180 -9.27211 5.92961 -0.481309 -17.0269 8.4623 4.60843e-05 -53.7062 14.398 8.63617 180 -72.391 180 10.638 0.738301 0.0687012 3.07772 10.5196 -19.7182 4.56967 -6.25494 -87.2648 -0 -0 8.11037 2.38311e-05 2.08703 28.5639 0.998212 -1.10673e-06 -75.8306 -0.807427 11.2086 -58.554 -0 -0 54.6815 0.00013381 13.4279 -12.1134 -2.8684 -1.51834e-06 -28.4935 
15.343 79.745 7.4706 -84.7452 -78.6729 110.948 0 -0 0 -0.11412 -4.77592 22.4543 20.9484 -11.4306 2.88299e-06 52.3376 -5.26203 27.1623 -180 70.6393 -180 -9.00161 5.98918 -0.471907 -17.0494 8.57938 8.68937e-06 -53.8184 14.4355 8.8542 180 -72.4864 180 10.5269 0.688598 0.0633983 3.32419 10.4994 -19.7043 5.16847 -6.47006 -85.8277 -0 -0 9.28742 -1.82327e-06 0.598504 27.8339 0.279403 3.57617e-06 -76.1967 -0.912655 10.9294 -58.3831 -0 -0 54.3068 2.76671e-05 13.3715 -11.9595 -2.81995 1.55845e-06 -28.566 
15.231 79.857 7.4451 -83.4118 -78.9141 109.727 0 -0 0 -0.345003 -4.87647 21.9648 21.0108 -11.6277 -2.99723e-05 52.4705 -5.33541 27.473 -180 70.9026 -180 -8.71279 6.04241 -0.460708 -17.0743 8.71118 -2.33786e-05 -53.861 14.4914 9.09931 180 -72.5187 180 10.2986 0.617597 0.0556995 3.55909 10.471 -19.7451 5.8506 -6.73263 -84.5005 -0 -0 10.7961 3.50368e-07 -1.1036 26.9887 -0.500897 -5.77266e-06 -76.4148 -1.03438 10.6494 -58.1909 -0 -0 53.8727 7.11352e-05 13.2891 -11.7684 -2.75812 2.78824e-06 -28.6818 
15.114 79.981 7.415 -81.9279 -79.1637 108.348 0 -0 0 -0.570312 -4.98255 21.5028 21.0558 -11.8455 0.000135653 52.5793 -5.44744 27.7766 -180 71.0813 -180 -8.42337 6.08637 -0.448597 -17.1037 8.85484 -4.42337e-05 -53.8375 14.5585 9.36321 180 -72.4919 180 9.96922 0.529096 0.0460991 3.76723 10.4244 -19.8541 6.5917 -7.05228 -83.2844 -0 -0 12.6362 1.3539e-05 -2.88265 26.0919 -1.2687 -8.39842e-07 -76.3386 -1.1654 10.3663 -57.9675 -0 -0 53.39 -2.76893e-05 13.1915 -11.5514 -2.68719 -7.92401e-06 -28.8326 
14.99 80.113 7.3808 -80.3384 -79.4152 106.854 0 -0 0 -0.7941 -5.08623 21.0785 21.0896 -12.0747 0.000141949 52.6617 -5.59229 28.0714 -180 71.1875 -180 -8.14849 6.12122 -0.436393 -17.1357 8.99711 -1.23597e-05 -53.7526 14.6433 9.63272 180 -72.4139 180 9.56282 0.427094 0.0357002 3.93985 10.35 -20.0323 7.32403 -7.42262 -82.1553 -0 -0 14.7636 -5.4129e-06 -4.62712 25.189 -1.97283 -3.04401e-05 -75.708 -1.30461 10.0805 -57.7079 -0 -0 52.8679 2.58876e-05 13.0857 -11.3178 -2.6118 -2.16509e-06 -28.9898 
14.861 80.252 7.3402 -78.6411 -79.6692 105.236 0 -0 0 -1.00353 -5.18507 20.7013 21.1094 -12.306 -0.000149534 52.7162 -5.75813 28.359 -180 71.2241 -180 -7.89889 6.14837 -0.424896 -17.171 9.13928 4.25868e-05 -53.6196 14.7357 9.8999 -180 -72.2976 180 9.10778 0.316705 0.0252003 4.06762 10.2442 -20.2733 7.98421 -7.82239 -81.0746 -0 -0 17.1044 1.8013e-05 -6.24799 24.3317 -2.58285 -2.21185e-05 -74.5776 -1.43629 9.79493 -57.414 -0 -0 52.3189 -6.3642e-05 12.9798 -11.0736 -2.53487 1.40879e-06 -29.1553 
